<svg xmlns="http://www.w3.org/2000/svg" viewBox="0 0 192.4 192.4" role="img" aria-label="Off the Shelf" xmlns:c2pa="http://c2pa.org/manifest"><metadata><c2pa:manifest>AAAWgmp1bWIAAAAeanVtZGMycGEAEQAQgAAAqgA4m3EDYzJwYQAAABZcanVtYgAAAEdqdW1kYzJtYQARABCAAACqADibcQN1cm46YzJwYTpmZDhhNGM1NS0wMTgxLTQzNzgtYTYyZS04ZWQwNzAxZmE4MzMAAAADl2p1bWIAAAApanVtZGMyYXMAEQAQgAAAqgA4m3EDYzJwYS5hc3NlcnRpb25zAAAAALxqdW1iAAAARGp1bWRjYm9yABEAEIAAAKoAOJtxE2MycGEuaW5ncmVkaWVudC52MwAAAAAYYzJzaOWgk5fSiO8Hx4ZCcbaOtssAAABwY2JvcqNpZGM6Zm9ybWF0bWltYWdlL3N2Zyt4bWxqaW5zdGFuY2VJRHgseG1wOmlpZDphZjAyM2M1OS03NDMzLTQ1NGEtYTJjMC00NDYwZDZlODBmYTRscmVsYXRpb25zaGlwaHBhcmVudE9mAAAB4mp1bWIAAABBanVtZGNib3IAEQAQgAAAqgA4m3ETYzJwYS5hY3Rpb25zLnYyAAAAABhjMnNod/3W96RsuXM1lIt/pzlL6wAAAZljYm9yomdhY3Rpb25zgqJmYWN0aW9ua2MycGEub3BlbmVkanBhcmFtZXRlcnOha2luZ3JlZGllbnRzgaJjdXJseC1zZWxmI2p1bWJmPWMycGEuYXNzZXJ0aW9ucy9jMnBhLmluZ3JlZGllbnQudjNkaGFzaFggQ4s8nHEd+CTKWUhtQZ5qYnUMmL9RgLuQIaWBlNUdVM+kZmFjdGlvbngdY29tLmFudGhyb3BpYy5jbGF1ZGUucHJvdmlkZWRqcGFyYW1ldGVyc6F4H2NvbS5hbnRocm9waWMub3JpZ2luLWNvbmZpZGVuY2VndW5rbm93bmtkZXNjcmlwdGlvbnhmQ2xhdWRlIHByb3ZpZGVkIHRoaXMgZmlsZSBhdCB0aGUgcmVxdWVzdCBvZiBhIHVzZXIgYW5kIG1heSBoYXZlIGNyZWF0ZWQgb3IgbW9kaWZpZWQgdGhlIGZpbGUgY29udGVudHMubXNvZnR3YXJlQWdlbnShZG5hbWVmQ2xhdWRlcmFsbEFjdGlvbnNJbmNsdWRlZPUAAADIanVtYgAAAEBqdW1kY2JvcgARABCAAACqADibcRNjMnBhLmhhc2guZGF0YQAAAAAYYzJzaFObB6GmZqcR0GPi/dloFdAAAACAY2JvcqVjYWxnZnNoYTI1NmNwYWRNAAAAAAAAAAAAAAAAAGRoYXNoWCDTFiqDua6NqyhkeblcW8K2vgYcVSMgXoJQ/NEzJ3d6JmRuYW1lbmp1bWJmIG1hbmlmZXN0amV4Y2x1c2lvbnOBomVzdGFydBinZmxlbmd0aBkeBAAAAj5qdW1iAAAAJ2p1bWRjMmNsABEAEIAAAKoAOJtxA2MycGEuY2xhaW0udjIAAAACD2Nib3KlY2FsZ2ZzaGEyNTZpc2lnbmF0dXJleE1zZWxmI2p1bWJmPS9jMnBhL3VybjpjMnBhOmZkOGE0YzU1LTAxODEtNDM3OC1hNjJlLThlZDA3MDFmYTgzMy9jMnBhLnNpZ25hdHVyZWppbnN0YW5jZUlEeCx4bXA6aWlkOmMwMWE5MGE1LTgzYWMtNGU4YS04MDViLTJlYzEwNDNlYTU3NHJjcmVhdGVkX2Fzc2VydGlvbnODomN1cmx4LXNlbGYjanVtYmY9YzJwYS5hc3NlcnRpb25zL2MycGEuaW5ncmVkaWVudC52M2RoYXNoWCBDizyccR34JMpZSG1BnmpidQyYv1GAu5AhpYGU1R1Uz6JjdXJseCpzZWxmI2p1bWJmPWMycGEuYXNzZXJ0aW9ucy9jMnBhLmFjdGlvbnMudjJkaGFzaFggr7dFglm6Ekwf09oTLmr+1U5y5Mco+oQom/xYd8c/ukyiY3VybHgpc2VsZiNqdW1iZj1jMnBhLmFzc2VydGlvbnMvYzJwYS5oYXNoLmRhdGFkaGFzaFggytQFGzEmwb3BJ5W3iOkLFkVkgDJ4pCKlfWxWFEYRsVx0Y2xhaW1fZ2VuZXJhdG9yX2luZm+jZG5hbWVvQW50aHJvcGljIEZpbGVzZ3ZlcnNpb25lMS4wLjBrc3BlY1ZlcnNpb25lMi40LjAAABA4anVtYgAAAChqdW1kYzJjcwARABCAAACqADibcQNjMnBhLnNpZ25hdHVyZQAAABAIY2JvctKEWQISogEmGCFZAgowggIGMIIBjaADAgECAhRA5aAK7sI50L64g/oGQgU9Z1UTADAKBggqhkjOPQQDAzBJMRcwFQYDVQQKEw5BbnRocm9waWMsIFBCQzEuMCwGA1UEAxMlQW50aHJvcGljIENvbnRlbnQgQ3JlZGVudGlhbHMgUm9vdCBDQTAeFw0yNjA4MDcxODQzNTZaFw0yODA4MDYxOTQzNTZaMEQxFzAVBgNVBAoTDkFudGhyb3BpYywgUEJDMSkwJwYDVQQDEyBBbnRocm9waWMgQ2xhdWRlIENvbnRlbnQgU2lnbmluZzBZMBMGByqGSM49AgEGCCqGSM49AwEHA0IABJh6CmvLUBgFFNU0vUKlOVtE6djd17L5SuwX0LemFisBM3dkd/3cyjxFA3Qo5S46fX0/ihY0VZ7mfb9KF703t5OjWDBWMA4GA1UdDwEB/wQEAwIHgDAVBgNVHSUEDjAMBgorBgEEAYPoXgIBMAwGA1UdEwEB/wQCMAAwHwYDVR0jBBgwFoAUzlHiBIFOZFsj+OPEz5o+nMHXXMIwCgYIKoZIzj0EAwMDZwAwZAIwMXMdFJ4BetLLVY7ORuE9noqbbAZOZn/aArXyTwFAZfKrPzxF2vPoJNf1+UCdg1XGAjBwX1zd9WGqYkqmL5SFqw1QySjr1zJfpJM9+1rdDwSPLMOPOjKuiXjoU/pUUeG9RwmhY3BhZFkNngAAAAAAAAAAAAAAAAAAAAAAAAAAAAAAAAAAAAAAAAAAAAAAAAAAAAAAAAAAAAAAAAAAAAAAAAAAAAAAAAAAAAAAAAAAAAAAAAAAAAAAAAAAAAAAAAAAAAAAAAAAAAAAAAAAAAAAAAAAAAAAAAAAAAAAAAAAAAAAAAAAAAAAAAAAAAAAAAAAAAAAAAAAAAAAAAAAAAAAAAAAAAAAAAAAAAAAAAAAAAAAAAAAAAAAAAAAAAAAAAAAAAAAAAAAAAAAAAAAAAAAAAAAAAAAAAAAAAAAAAAAAAAAAAAAAAAAAAAAAAAAAAAAAAAAAAAAAAAAAAAAAAAAAAAAAAAAAAAAAAAAAAAAAAAAAAAAAAAAAAAAAAAAAAAAAAAAAAAAAAAAAAAAAAAAAAAAAAAAAAAAAAAAAAAAAAAAAAAAAAAAAAAAAAAAAAAAAAAAAAAAAAAAAAAAAAAAAAAAAAAAAAAAAAAAAAAAAAAAAAAAAAAAAAAAAAAAAAAAAAAAAAAAAAAAAAAAAAAAAAAAAAAAAAAAAAAAAAAAAAAAAAAAAAAAAAAAAAAAAAAAAAAAAAAAAAAAAAAAAAAAAAAAAAAAAAAAAAAAAAAAAAAAAAAAAAAAAAAAAAAAAAAAAAAAAAAAAAAAAAAAAAAAAAAAAAAAAAAAAAAAAAAAAAAAAAAAAAAAAAAAAAAAAAAAAAAAAAAAAAAAAAAAAAAAAAAAAAAAAAAAAAAAAAAAAAAAAAAAAAAAAAAAAAAAAAAAAAAAAAAAAAAAAAAAAAAAAAAAAAAAAAAAAAAAAAAAAAAAAAAAAAAAAAAAAAAAAAAAAAAAAAAAAAAAAAAAAAAAAAAAAAAAAAAAAAAAAAAAAAAAAAAAAAAAAAAAAAAAAAAAAAAAAAAAAAAAAAAAAAAAAAAAAAAAAAAAAAAAAAAAAAAAAAAAAAAAAAAAAAAAAAAAAAAAAAAAAAAAAAAAAAAAAAAAAAAAAAAAAAAAAAAAAAAAAAAAAAAAAAAAAAAAAAAAAAAAAAAAAAAAAAAAAAAAAAAAAAAAAAAAAAAAAAAAAAAAAAAAAAAAAAAAAAAAAAAAAAAAAAAAAAAAAAAAAAAAAAAAAAAAAAAAAAAAAAAAAAAAAAAAAAAAAAAAAAAAAAAAAAAAAAAAAAAAAAAAAAAAAAAAAAAAAAAAAAAAAAAAAAAAAAAAAAAAAAAAAAAAAAAAAAAAAAAAAAAAAAAAAAAAAAAAAAAAAAAAAAAAAAAAAAAAAAAAAAAAAAAAAAAAAAAAAAAAAAAAAAAAAAAAAAAAAAAAAAAAAAAAAAAAAAAAAAAAAAAAAAAAAAAAAAAAAAAAAAAAAAAAAAAAAAAAAAAAAAAAAAAAAAAAAAAAAAAAAAAAAAAAAAAAAAAAAAAAAAAAAAAAAAAAAAAAAAAAAAAAAAAAAAAAAAAAAAAAAAAAAAAAAAAAAAAAAAAAAAAAAAAAAAAAAAAAAAAAAAAAAAAAAAAAAAAAAAAAAAAAAAAAAAAAAAAAAAAAAAAAAAAAAAAAAAAAAAAAAAAAAAAAAAAAAAAAAAAAAAAAAAAAAAAAAAAAAAAAAAAAAAAAAAAAAAAAAAAAAAAAAAAAAAAAAAAAAAAAAAAAAAAAAAAAAAAAAAAAAAAAAAAAAAAAAAAAAAAAAAAAAAAAAAAAAAAAAAAAAAAAAAAAAAAAAAAAAAAAAAAAAAAAAAAAAAAAAAAAAAAAAAAAAAAAAAAAAAAAAAAAAAAAAAAAAAAAAAAAAAAAAAAAAAAAAAAAAAAAAAAAAAAAAAAAAAAAAAAAAAAAAAAAAAAAAAAAAAAAAAAAAAAAAAAAAAAAAAAAAAAAAAAAAAAAAAAAAAAAAAAAAAAAAAAAAAAAAAAAAAAAAAAAAAAAAAAAAAAAAAAAAAAAAAAAAAAAAAAAAAAAAAAAAAAAAAAAAAAAAAAAAAAAAAAAAAAAAAAAAAAAAAAAAAAAAAAAAAAAAAAAAAAAAAAAAAAAAAAAAAAAAAAAAAAAAAAAAAAAAAAAAAAAAAAAAAAAAAAAAAAAAAAAAAAAAAAAAAAAAAAAAAAAAAAAAAAAAAAAAAAAAAAAAAAAAAAAAAAAAAAAAAAAAAAAAAAAAAAAAAAAAAAAAAAAAAAAAAAAAAAAAAAAAAAAAAAAAAAAAAAAAAAAAAAAAAAAAAAAAAAAAAAAAAAAAAAAAAAAAAAAAAAAAAAAAAAAAAAAAAAAAAAAAAAAAAAAAAAAAAAAAAAAAAAAAAAAAAAAAAAAAAAAAAAAAAAAAAAAAAAAAAAAAAAAAAAAAAAAAAAAAAAAAAAAAAAAAAAAAAAAAAAAAAAAAAAAAAAAAAAAAAAAAAAAAAAAAAAAAAAAAAAAAAAAAAAAAAAAAAAAAAAAAAAAAAAAAAAAAAAAAAAAAAAAAAAAAAAAAAAAAAAAAAAAAAAAAAAAAAAAAAAAAAAAAAAAAAAAAAAAAAAAAAAAAAAAAAAAAAAAAAAAAAAAAAAAAAAAAAAAAAAAAAAAAAAAAAAAAAAAAAAAAAAAAAAAAAAAAAAAAAAAAAAAAAAAAAAAAAAAAAAAAAAAAAAAAAAAAAAAAAAAAAAAAAAAAAAAAAAAAAAAAAAAAAAAAAAAAAAAAAAAAAAAAAAAAAAAAAAAAAAAAAAAAAAAAAAAAAAAAAAAAAAAAAAAAAAAAAAAAAAAAAAAAAAAAAAAAAAAAAAAAAAAAAAAAAAAAAAAAAAAAAAAAAAAAAAAAAAAAAAAAAAAAAAAAAAAAAAAAAAAAAAAAAAAAAAAAAAAAAAAAAAAAAAAAAAAAAAAAAAAAAAAAAAAAAAAAAAAAAAAAAAAAAAAAAAAAAAAAAAAAAAAAAAAAAAAAAAAAAAAAAAAAAAAAAAAAAAAAAAAAAAAAAAAAAAAAAAAAAAAAAAAAAAAAAAAAAAAAAAAAAAAAAAAAAAAAAAAAAAAAAAAAAAAAAAAAAAAAAAAAAAAAAAAAAAAAAAAAAAAAAAAAAAAAAAAAAAAAAAAAAAAAAAAAAAAAAAAAAAAAAAAAAAAAAAAAAAAAAAAAAAAAAAAAAAAAAAAAAAAAAAAAAAAAAAAAAAAAAAAAAAAAAAAAAAAAAAAAAAAAAAAAAAAAAAAAAAAAAAAAAAAAAAAAAAAAAAAAAAAAAAAAAAAAAAAAAAAAAAAAAAAAAAAAAAAAAAAAAAAAAAAAAAAAAAAAAAAAAAAAAAAAAAAAAAAAAAAAAAAAAAAAAAAAAAAAAAAAAAAAAAAAAAAAAAAAAAAAAAAAAAAAAAAAAAAAAAAAAAAAAAAAAAAAAAAAAAAAAAAAAAAAAAAAAAAAAAAAAAAAAAAAAAAAAAAAAAAAAAAAAAAAAAAAAAAAAAAAAAAAAAAAAAAAAAAAAAAAAAAAAAAAAAAAAAAAAAAAAAAAAAAAAAAAAAAAAAAAAAAAAAAAAAAAAAAAAAAAAAAAAAAAAAAAAAAAAAAAAAAAAAAAAAAAAAAAAAAAAAAAAAAAAAAAAAAAAAAAAAAAAAAAAAAAAAAAAAAAAAAAAAAAAAAAAAAAAAAAAAAAAAAAAAAAAAAAAAAAAAAAAAAAAAAAAAAAAAAAAAAAAAAAAAAAAAAAAAAAAAAAAAAAAAAAAAAAAAAAAAAAAAAAAAAAAAAAAAAAAAAAAAAAAAAAAAAAAAAAAAAAAAAAAAAAAAAAAAAAAAAAAAAAAAAAAAAAAAAAAAAAAAAAAAAAAAAAAAAAAAAAAAAAAAAAAAAAAAAAAAAAAAAAAAAAAAAAAAAAAAAAAAAAAAAAAAAAAAAAAAAAAAAAAAAAAAAAAAAAAAAAAAAAAAAAAAAAAAAAAAAAAAAAAAAAAAAAAAAAAAAAAAAAAAAAAAAAAAAAAAAAAAAAAAAAAAAAAAAAAAAAAAAAAAAAAAAAAAAAAAAAAAAAAAAAAAAAAAAAAAAAAAAAAAAAAAAAAAAAAAAAAAAAAAAAAAAAAAAAAAAAAAAAAAAAAAAAAAAAAAAAAAAAAAAAAAAAAAAAAAAAAAAAAAAAAAAAAAAAAAAAAAAAAAAAAAAAAAAAAAAAAAAAAAAAAAAAAAAAAAAAAAAAAAAAAAAAAAAAAAAAAAAAAAAAAAAAAAAAAAAAAAAAAAAAAAAAAAAAAAAAAAAAAAAAAAAAAAAAAAAAAAAAAAAAAAAAAAAAAAAAAAAAAAAAAAAAAAAAAAAAAAAAAAAAAAAAAAAAAAAAAAAAAAAAAAAAAAAAAAAAAAAAAAAAAAAAAAAAAAAAAAAAAAAAAAAAAAAAAAAAAAAAAAAAAAAAAAAAAAAAAAAAAAAAAAAAAAAAAAAAAAAAAAAAAAAAAAAAAAAAAAAAAAAAAAAAAAAAAAAAAAAAAAAAAAAAAAAAAAAAAAAAAAAAAAAAAAAAAAAAAAAAAAAAAAAAAAAAAAAAAAAAAAAAAAAAAAAAAAAAAAAAAAAAAAAAAAAAAAAAAAAAAAAAAAAAAAAAAAAAAAAAAAAAAAAAAAAAAAAAAAAAAAAAAAAAAAAAAAAAAAAAAAAAAAAAAAAAAAAAAAAAAAAAAAAAAAAAAAAAAAAAAAAAAAAAAAAAAAAAAAAAAAAAAAAAAAAAAAAAAAAAAAAAAAAAAAAAAAAAAAAAAAAAAAAAAAAAAAAAAAAAAAAAAAAAAAAAAAAAAAAAAAAAPZYQIhKg6sYZCpMC/j2K+ySFJmXpcSpwn6MX6SypdhdKVUePslC9mkDTOkAhyGp35+DRUXaoeifGDanJLpmd9gowoY=</c2pa:manifest></metadata>
<g transform="translate(33.7 3.7)">
<path d="M67.8967 17.9391C67.5126 15.7636 68.9648 13.6886 71.1402 13.3045L90.8356 9.82678C93.011 9.44265 95.086 10.8948 95.4702 13.0703L124.161 175.557C124.545 177.732 123.093 179.807 120.918 180.191L101.222 183.669C99.0467 184.053 96.9717 182.601 96.5876 180.425L67.8967 17.9391Z" fill="#E2412B"/>
<path d="M94.4417 90.4311C92.1867 90.9184 91.9662 92.9842 92.1378 93.9562C91.2565 93.8519 89.0852 94.9407 89.0074 96.6249C88.8674 99.6564 91.5823 99.7339 91.4732 99.7532C91.364 99.7724 91.0517 103.103 93.3793 103.537C96.0794 104.04 96.9805 102.047 97.0936 100.988C97.9583 102.06 100.518 102.536 101.612 101.081C102.924 99.3348 101.907 97.651 101.234 97.0274C102.112 96.6868 103.413 94.6478 102.204 92.9584C100.859 91.0799 98.8043 91.554 97.7891 92.1787C97.6129 91.3932 96.6967 89.9439 94.4417 90.4311Z" fill="#FFADAD" fill-opacity="0.53"/>
<path d="M0.0476667 14.9997C0.0213411 12.7907 1.79073 10.9787 3.99972 10.9523L23.9983 10.714C26.2073 10.6877 28.0194 12.4571 28.0457 14.666L30.0119 179.654C30.0383 181.863 28.2689 183.675 26.0599 183.702L6.0613 183.94C3.85231 183.966 2.04024 182.197 2.01391 179.988L0.0476667 14.9997Z" fill="#E2412B"/>
<path d="M14.4878 90.8365C12.1836 90.9517 11.6311 92.9544 11.6428 93.9414C10.7901 93.6956 8.47097 94.4179 8.12116 96.0672C7.49152 99.036 10.1579 99.5526 10.0471 99.5539C9.93626 99.5552 9.08807 102.791 11.3145 103.597C13.8972 104.531 15.1096 102.711 15.3929 101.684C16.0723 102.882 18.5214 103.767 19.8365 102.508C21.4146 100.998 20.6835 99.1712 20.1206 98.4467C21.042 98.253 22.6567 96.4519 21.7373 94.5888C20.7151 92.5172 18.6106 92.6519 17.5076 93.1037C17.461 92.3 16.7919 90.7213 14.4878 90.8365Z" fill="#FFADAD" fill-opacity="0.53"/>
<path d="M36 4C36 1.79086 37.7909 0 40 0H60C62.2091 0 64 1.79086 64 4V180C64 182.209 62.2091 184 60 184H40C37.7909 184 36 182.209 36 180V4Z" fill="#4280CF"/>
<path d="M47.6048 14.234C46.8089 14.7699 47.5679 16.9877 48.0469 18.0297C47.3837 16.8761 45.7921 14.7698 44.7309 15.5736C43.493 16.6453 45.3205 18.6251 46.3889 19.481C46.0352 19.2131 45.0625 18.9303 44.2889 19.0344C43.7362 19.1089 42.7193 19.5703 43.073 20.8207C43.4267 22.071 45.7258 22.5324 46.8311 22.6069C46.2785 22.979 45.0406 23.9688 44.51 24.9513C43.8468 26.1793 44.3995 27.2956 45.9469 27.0724C47.1849 26.8938 48.1576 25.3606 48.4892 24.6163C48.3123 26.5812 49.226 27.5933 49.705 27.8538C49.926 27.974 50.6334 28.2334 51.2523 27.5189C51.8713 26.8044 51.2893 24.6908 51.0314 23.9465C51.6504 25.1075 52.8368 26.0676 53.3526 26.4025C54.0156 26.7374 55.2314 26.5141 55.342 25.2861C55.4612 23.9639 53.0947 22.4208 51.8051 21.7138C52.2472 21.8254 53.4189 22.071 54.5684 22.1603C55.7179 22.2496 56.9999 22.2718 57 20.9322C57.0001 19.8568 54.421 19.481 53.1315 19.481C54.2368 19.2577 56.0053 18.0297 55.3421 16.9133C54.8116 16.0202 52.7631 17.1366 51.8051 17.8064C52.0999 17.211 52.7115 15.8863 52.7999 15.3504C52.9104 14.6806 52.7999 13.899 51.9155 14.0107C50.9151 14.1371 49.8892 15.6109 49.705 16.4668C49.4839 14.9038 48.5996 13.5642 47.6048 14.234Z" fill="#C7DDF8" fill-opacity="0.31"/>
<path d="M47.6048 156.234C46.8089 156.77 47.5679 158.988 48.0469 160.03C47.3837 158.876 45.7921 156.77 44.7309 157.574C43.493 158.645 45.3205 160.625 46.3889 161.481C46.0352 161.213 45.0625 160.93 44.2889 161.034C43.7362 161.109 42.7193 161.57 43.073 162.821C43.4267 164.071 45.7258 164.532 46.8311 164.607C46.2785 164.979 45.0406 165.969 44.51 166.951C43.8468 168.179 44.3995 169.296 45.9469 169.072C47.1849 168.894 48.1576 167.361 48.4892 166.616C48.3123 168.581 49.226 169.593 49.705 169.854C49.926 169.974 50.6334 170.233 51.2523 169.519C51.8713 168.804 51.2893 166.691 51.0314 165.947C51.6504 167.108 52.8368 168.068 53.3526 168.403C54.0156 168.737 55.2314 168.514 55.342 167.286C55.4612 165.964 53.0947 164.421 51.8051 163.714C52.2472 163.825 53.4189 164.071 54.5684 164.16C55.7179 164.25 56.9999 164.272 57 162.932C57.0001 161.857 54.421 161.481 53.1315 161.481C54.2368 161.258 56.0053 160.03 55.3421 158.913C54.8116 158.02 52.7631 159.137 51.8051 159.806C52.0999 159.211 52.7115 157.886 52.7999 157.35C52.9104 156.681 52.7999 155.899 51.9155 156.011C50.9151 156.137 49.8892 157.611 49.705 158.467C49.4839 156.904 48.5996 155.564 47.6048 156.234Z" fill="#C7DDF8" fill-opacity="0.31"/>
</g>
</svg>
